<svg xmlns="http://www.w3.org/2000/svg" xmlns:xlink="http://www.w3.org/1999/xlink">
    <defs>
        <symbol id="web" viewBox="0 0 24 24">
            <path fill="currentColor" d="M12 0c6.623 0 12 5.377 12 12s-5.377 12-12 12-12-5.377-12-12 5.377-12 12-12m2.557 16h-5.115c.546 2.46 1.441 4.114 2.558 5.744 1.194-1.741 2.041-3.41 2.557-5.744m-7.157 0h-4.567c1.236 2.825 3.704 4.972 6.755 5.716-1.048-1.733-1.783-3.658-2.188-5.716m13.767 0h-4.567c-.391 1.988-1.095 3.887-2.175 5.694 3.012-.763 5.517-2.895 6.742-5.694m-14.005-6h-4.962c-.267 1.313-.267 2.685 0 4h4.915c-.119-1.329-.101-2.672.047-4m7.661 0h-5.647c-.165 1.326-.185 2.672-.053 4h5.753c.133-1.328.111-2.673-.053-4m6.977 0h-4.963c.148 1.328.166 2.671.048 4h4.915c.26-1.285.273-2.648 0-4m-12.156-7.729c-3.077.732-5.567 2.886-6.811 5.729h4.653c.435-2.042 1.178-3.985 2.158-5.729m2.355-.048c-1.089 1.77-1.91 3.453-2.463 5.777h4.927c-.534-2.246-1.337-3.948-2.464-5.777m2.368.069c1.013 1.812 1.733 3.76 2.146 5.708h4.654c-1.232-2.816-3.762-4.958-6.8-5.708"/>
        </symbol>
        <symbol id="forums" viewBox="0 0 24 24">
            <path fill="currentColor" d="M2.001 9.352c0 1.873.849 2.943 1.683 3.943.031 1 .085 1.668-.333 3.183 1.748-.558 2.038-.778 3.008-1.374 1 .244 1.474.381 2.611.491-.094.708-.081 1.275.055 2.023-.752-.06-1.528-.178-2.33-.374-1.397.857-4.481 1.725-6.649 2.115.811-1.595 1.708-3.785 1.661-5.312-1.09-1.305-1.705-2.984-1.705-4.695-.001-4.826 4.718-8.352 9.999-8.352 5.237 0 9.977 3.484 9.998 8.318-.644-.175-1.322-.277-2.021-.314-.229-3.34-3.713-6.004-7.977-6.004-4.411 0-8 2.85-8 6.352zm20.883 10.169c-.029 1.001.558 2.435 1.088 3.479-1.419-.258-3.438-.824-4.352-1.385-.772.188-1.514.274-2.213.274-3.865 0-6.498-2.643-6.498-5.442 0-3.174 3.11-5.467 6.546-5.467 3.457 0 6.546 2.309 6.546 5.467 0 1.12-.403 2.221-1.117 3.074zm-7.563-3.021c0-.453-.368-.82-.82-.82s-.82.367-.82.82.368.82.82.82.82-.367.82-.82zm3 0c0-.453-.368-.82-.82-.82s-.82.367-.82.82.368.82.82.82.82-.367.82-.82zm3 0c0-.453-.368-.82-.82-.82s-.82.367-.82.82.368.82.82.82.82-.367.82-.82z"/>
        </symbol>
    </defs>
</svg>